<svg width="26" height="26" viewBox="0 0 26 26" fill="none" xmlns="http://www.w3.org/2000/svg"><path fill-rule="evenodd" clip-rule="evenodd" d="M18.667.25H7.333A7.083 7.083 0 00.25 7.333v11.334a7.083 7.083 0 007.083 7.083h11.334a7.083 7.083 0 007.083-7.083V7.333A7.083 7.083 0 0018.667.25zm4.604 18.417a4.618 4.618 0 01-4.604 4.604H7.333a4.618 4.618 0 01-4.604-4.604V7.333A4.618 4.618 0 017.333 2.73h11.334a4.618 4.618 0 014.604 4.604v11.334zm-3.542-10.98a1.417 1.417 0 100-2.833 1.417 1.417 0 000 2.833zM13 6.625A6.375 6.375 0 1019.375 13 6.361 6.361 0 0013 6.625zM9.104 13a3.896 3.896 0 107.792 0 3.896 3.896 0 00-7.792 0z" fill="#181818"/></svg>