<svg width="12" height="16" viewBox="0 0 12 16" fill="none" xmlns="http://www.w3.org/2000/svg"><path fill-rule="evenodd" clip-rule="evenodd" d="M12 6.5a6 6 0 10-12 0c0 2.808 1.373 3.913 2.647 4.937.842.678 1.642 1.32 1.973 2.398l.383 1.155a.75.75 0 00.75.51h.42a.75.75 0 00.75-.51l.382-1.155c.358-1.07 1.166-1.71 2.012-2.382C10.613 10.423 12 9.323 12 6.5zM6 2a4.5 4.5 0 00-4.5 4.5c0 2.1.885 2.805 2.115 3.75A6.877 6.877 0 016 13.047a6.937 6.937 0 012.385-2.797C9.615 9.305 10.5 8.6 10.5 6.5A4.5 4.5 0 006 2zm1.5 4.5a1.5 1.5 0 11-3 0 1.5 1.5 0 013 0z" fill="#fff"/></svg>