<svg width="42" height="42" viewBox="0 0 42 42" fill="none" xmlns="http://www.w3.org/2000/svg"><path fill="#FDEC41" stroke="#000" stroke-width="2.127" d="M8.241 24.721h25.253v8.506H8.241z"/><mask id="a" fill="#fff"><path fill-rule="evenodd" clip-rule="evenodd" d="M42 0H0v42h42V0zm-9.57 9.57H9.57v22.86h22.86V9.57z"/></mask><path fill-rule="evenodd" clip-rule="evenodd" d="M42 0H0v42h42V0zm-9.57 9.57H9.57v22.86h22.86V9.57z" fill="#A7EAF3"/><path d="M0 0v-1.86h-1.86V0H0zm42 0h1.86v-1.86H42V0zM0 42h-1.86v1.86H0V42zm42 0v1.86h1.86V42H42zM9.57 9.57V7.709H7.709v1.86h1.86zm22.86 0h1.861V7.709h-1.86v1.86zM9.57 32.43H7.709v1.861h1.86v-1.86zm22.86 0v1.861h1.861v-1.86h-1.86zM0 1.86h42v-3.72H0v3.72zM1.86 42V0h-3.72v42h3.72zM42 40.14H0v3.72h42v-3.72zM40.14 0v42h3.72V0h-3.72zM9.57 11.43h22.86V7.71H9.57v3.721zm1.86 21V9.57H7.71v22.86h3.721zm21-1.86H9.57v3.721h22.86V30.57zm-1.86-21v22.86h3.721V9.57H30.57z" fill="#000" mask="url(#a)"/><path d="M20.203 7.709V1.86h19.936v38.278l-5.848-5.848V7.71H20.203z" fill="#003B9F"/><path d="M1.86 1.86l5.85 5.85h12.494V1.86H1.86z" fill="#FF8761"/><circle cx="21" cy="16.481" r="5.051" fill="#FFB800"/></svg>