<svg width="30" height="25" viewBox="0 0 30 25" fill="none" xmlns="http://www.w3.org/2000/svg"><path d="M29.124 4.157a11.319 11.319 0 01-2.617 2.52v.777a17.27 17.27 0 01-5.129 12.313 17.253 17.253 0 01-12.369 4.981A17.307 17.307 0 011.3 22.965a.354.354 0 01-.212-.325v-.156c0-.203.165-.368.368-.368a12.53 12.53 0 007.242-2.604 6.181 6.181 0 01-5.502-3.623.368.368 0 01.367-.51 5.657 5.657 0 002.15-.197A6.17 6.17 0 01.833 9.79a.368.368 0 01.51-.368c.704.31 1.465.474 2.235.48a6.059 6.059 0 01-2.42-6.99.764.764 0 011.288-.255 17.48 17.48 0 0011.896 5.49 5.663 5.663 0 01-.17-1.414 6.165 6.165 0 0110.623-4.16 12.288 12.288 0 003.381-1.176.24.24 0 01.255 0 .24.24 0 010 .255 6.184 6.184 0 01-2.49 2.83c.967-.112 1.917-.34 2.83-.679a.226.226 0 01.254 0 .24.24 0 01.1.354z" fill="#181818"/></svg>